<svg height="54pt" preserveAspectRatio="xMidYMid meet" viewBox="0 0 200 54" width="200pt" xmlns="http://www.w3.org/2000/svg"><g transform="matrix(.1 0 0 -.1 0 54)"><path d="m1275 493c-47-12-115-47-115-59 0-8-7-14-15-14s-15-7-15-15c0-14 169-75 211-75 11 0 18-4 15-9s12-16 34-25c70-28 90-18 47 22-25 24-156 61-221 63l-41 1 40 8c22 5 57 6 78 3 25-4 37-2 37 6 0 9 13 10 45 5 30-4 50-2 60 6 8 6 22 9 32 6s32-2 48 3c22 7-5 9-95 10-112 0-196-11-252-34-10-4-18-4-18-1 0 4 14 12 30 17 17 6 30 15 30 20s9 9 19 9c28 0 52 11 45 21-3 5 4 9 14 9 11 0 22 7 26 15 5 15-2 17-39 8z"/><path d="m816 439c-67-16-54-19 65-17 64 1 121-2 128-6 7-5 15-5 18-2s11 2 17-3c6-4 26-13 44-19 26-9 33-9 30 1-14 42-198 70-302 46z"/><path d="m693 403c9-2 23-2 30 0 6 3-1 5-18 5-16 0-22-2-12-5z"/><path d="m885 386c-57-18-102-43-108-60-8-21 8-29 23-11 7 8 20 15 29 15s28 6 42 14c14 7 48 16 75 20 122 16 131 19 104 27-39 11-121 9-165-5z"/><path d="m1045 363c-97-21-121-79-41-99 27-6 28-6 16 16-10 18-9 24 1 31 8 5 18 9 22 9 5 0 6 4 3 9s7 11 22 13c15 3 34 8 42 12 10 4 28-5 51-26 54-51 67-86 60-170-1-21-45-52-63-45-8 3-2 10 15 17 55 26 27 56-67 72-65 11-83 22-48 31 9 3-1 5-24 6-48 1-88-23-64-38 8-6 33-13 55-16 76-12 115-26 115-40 0-18-34-27-90-23-49 3-64 23-28 37 20 9 18 10-17 10-48 1-70-11-62-33 4-9 2-16-4-16s-22 27-36 60l-26 60h-68-67l-24-62c-22-59-26-63-58-66l-35-3 33 28c49 41 43 79-18 113-39 21-58 24-135 24s-96-3-135-24c-37-21-46-31-48-56s3-37 24-53c15-11 34-21 42-21 37 0-4-14-60-20-35-4 234-7 597-7s642 2 620 4l-40 5 33 13c21 10 32 21 32 35 0 24-27 36-100 46-55 7-72 19-40 29 25 8 80-3 80-16 0-5 5-9 10-9 6 0 10 6 10 14 0 19-73 29-133 17-26-5-51-11-54-14-17-17 12-34 78-45 41-7 81-17 89-22 28-19-18-41-79-38-59 3-78 22-39 37 20 9 18 10-17 10-47 1-71-15-54-36 9-10 8-13-4-13-17 0-27 21-27 58 0 38-51 122-100 165-43 37-79 45-145 30zm-467-129c36-40 28-85-19-109-94-49-200 45-126 112 42 39 107 38 145-3zm232-19c0-9-9-15-25-15-24 0-32 10-18 23 12 13 43 7 43-8zm23-42c2-10 8-26 12-35 6-16 0-18-55-18s-61 2-55 18c4 9 10 25 12 35 4 12 16 17 43 17s39-5 43-17z"/><path d="m1105 233c11-3 26-10 33-15 9-8 12-6 12 6s-9 16-32 15c-22-1-26-3-13-6z"/><path d="m834 57c-15-17-15-19-2-9s22 11 37 2c26-14 28 1 2 17-16 10-22 8-37-10z"/><path d="m1030 66c0-8 5-18 10-21 6-3 10 3 10 14 0 12-4 21-10 21-5 0-10-6-10-14z"/><path d="m1220 60c0-11 5-20 10-20 6 0 10 9 10 20s-4 20-10 20c-5 0-10-9-10-20z"/><path d="m610 61c0-5 7-11 14-14 10-4 13-1 9 9-6 15-23 19-23 5z"/></g></svg>