<?xml version="1.0"?>
<svg xmlns="http://www.w3.org/2000/svg" viewBox="0 0 64 64" width="512" height="512"><g id="Coffee_cup" data-name="Coffee cup"><path d="M61,35a7.989,7.989,0,0,1-8,8H45.9a17.223,17.223,0,0,0,.97-4.02L47,39h6a4,4,0,0,0,0-8H47V27h6A8,8,0,0,1,61,35Z" style="fill:#ff7956"/><path d="M47,57a2.006,2.006,0,0,1,2,2,2.015,2.015,0,0,1-2,2H5a2.006,2.006,0,0,1-2-2,2.015,2.015,0,0,1,2-2H47Z" style="fill:#ff7956"/><path d="M47,27V37a14.525,14.525,0,0,1-.13,1.98A17.223,17.223,0,0,1,45.9,43,16.444,16.444,0,0,1,38,52v5H14V52A16.96,16.96,0,0,1,5,37V27Z" style="fill:#fee9ab"/><path d="M47,25v2H5V25a2.006,2.006,0,0,1,2-2H45A2.006,2.006,0,0,1,47,25Z" style="fill:#c0ab91"/><path d="M35.96,3h4c0,2.67-1.92,2.67-1.92,5.33s1.92,2.67,1.92,5.34S38.04,16.33,38.04,19h-4c0-2.67,1.92-2.67,1.92-5.33S34.04,11,34.04,8.33,35.96,5.67,35.96,3Z" style="fill:#c0ab91"/><ellipse cx="26" cy="42" rx="6" ry="10" style="fill:#a78966"/><path d="M24.96,3h4c0,2.67-1.92,2.67-1.92,5.33s1.92,2.67,1.92,5.34S27.04,16.33,27.04,19h-4c0-2.67,1.92-2.67,1.92-5.33S23.04,11,23.04,8.33,24.96,5.67,24.96,3Z" style="fill:#c0ab91"/><path d="M13.96,3h4c0,2.67-1.92,2.67-1.92,5.33s1.92,2.67,1.92,5.34S16.04,16.33,16.04,19h-4c0-2.67,1.92-2.67,1.92-5.33S12.04,11,12.04,8.33,13.96,5.67,13.96,3Z" style="fill:#c0ab91"/><path d="M53,26H48V25a3,3,0,0,0-3-3H7a3,3,0,0,0-3,3V37a17.941,17.941,0,0,0,9,15.61V56H5a3,3,0,0,0,0,6H47a3,3,0,0,0,0-6H39V52.61A17.333,17.333,0,0,0,46.587,44H53a9,9,0,0,0,0-18Zm-5,6h5a3,3,0,0,1,0,6H47.966c.018-.332.034-.665.034-1ZM7,24H45a1,1,0,0,1,1,1v1H6V25A1,1,0,0,1,7,24ZM48,59a1,1,0,0,1-1,1H5a1,1,0,0,1,0-2H47A1,1,0,0,1,48,59ZM37.562,51.1A1,1,0,0,0,37,52v4H15V52a1,1,0,0,0-.562-.9C9.47,48.676,6,42.877,6,37V28H46v9C46,42.877,42.53,48.676,37.562,51.1ZM57.956,39.951A7,7,0,0,1,53,42H47.283a18.441,18.441,0,0,0,.452-2H53a5,5,0,0,0,0-10H48V28h5a7.005,7.005,0,0,1,4.956,11.951Z"/><path d="M22.04,19a1,1,0,0,0,1,1h4a1,1,0,0,0,1-1,3.053,3.053,0,0,1,.772-2.083,5.179,5.179,0,0,0,0-6.5,3.053,3.053,0,0,1-.772-2.083,3.049,3.049,0,0,1,.772-2.081A5.006,5.006,0,0,0,29.96,3a1,1,0,0,0-1-1h-4a1,1,0,0,0-1,1,3.049,3.049,0,0,1-.772,2.081,5.008,5.008,0,0,0-1.148,3.25,5.007,5.007,0,0,0,1.148,3.251,3.2,3.2,0,0,1,0,4.166A5.012,5.012,0,0,0,22.04,19ZM24.812,6.25A5.234,5.234,0,0,0,25.873,4h1.941a4.042,4.042,0,0,1-.626,1.081,5.008,5.008,0,0,0-1.148,3.25,5.007,5.007,0,0,0,1.148,3.251,3.2,3.2,0,0,1,0,4.166A5.255,5.255,0,0,0,26.126,18h-1.94a4.037,4.037,0,0,1,.626-1.083,5.179,5.179,0,0,0,0-6.5,3.053,3.053,0,0,1-.772-2.083A3.049,3.049,0,0,1,24.812,6.25Z"/><path d="M33.04,19a1,1,0,0,0,1,1h4a1,1,0,0,0,1-1,3.053,3.053,0,0,1,.772-2.083,5.179,5.179,0,0,0,0-6.5,3.053,3.053,0,0,1-.772-2.083,3.049,3.049,0,0,1,.772-2.081A5.006,5.006,0,0,0,40.96,3a1,1,0,0,0-1-1h-4a1,1,0,0,0-1,1,3.049,3.049,0,0,1-.772,2.081,5.008,5.008,0,0,0-1.148,3.25,5.007,5.007,0,0,0,1.148,3.251,3.2,3.2,0,0,1,0,4.166A5.012,5.012,0,0,0,33.04,19ZM35.812,6.25A5.234,5.234,0,0,0,36.873,4h1.941a4.042,4.042,0,0,1-.626,1.081,5.008,5.008,0,0,0-1.148,3.25,5.007,5.007,0,0,0,1.148,3.251,3.2,3.2,0,0,1,0,4.166A5.255,5.255,0,0,0,37.126,18h-1.94a4.037,4.037,0,0,1,.626-1.083,5.179,5.179,0,0,0,0-6.5,3.053,3.053,0,0,1-.772-2.083A3.049,3.049,0,0,1,35.812,6.25Z"/><path d="M11.04,19a1,1,0,0,0,1,1h4a1,1,0,0,0,1-1,3.053,3.053,0,0,1,.772-2.083,5.179,5.179,0,0,0,0-6.5,3.053,3.053,0,0,1-.772-2.083,3.049,3.049,0,0,1,.772-2.081A5.006,5.006,0,0,0,18.96,3a1,1,0,0,0-1-1h-4a1,1,0,0,0-1,1,3.049,3.049,0,0,1-.772,2.081,5.008,5.008,0,0,0-1.148,3.25,5.007,5.007,0,0,0,1.148,3.251,3.2,3.2,0,0,1,0,4.166A5.012,5.012,0,0,0,11.04,19ZM13.812,6.25A5.234,5.234,0,0,0,14.873,4h1.941a4.042,4.042,0,0,1-.626,1.081,5.008,5.008,0,0,0-1.148,3.25,5.007,5.007,0,0,0,1.148,3.251,3.2,3.2,0,0,1,0,4.166A5.255,5.255,0,0,0,15.126,18h-1.94a4.037,4.037,0,0,1,.626-1.083,5.179,5.179,0,0,0,0-6.5,3.053,3.053,0,0,1-.772-2.083A3.049,3.049,0,0,1,13.812,6.25Z"/><path d="M26,31c-3.925,0-7,4.832-7,11s3.075,11,7,11,7-4.832,7-11S29.925,31,26,31Zm1,19.81V43H25v7.81c-2.251-.861-4-4.546-4-8.81,0-4.878,2.29-9,5-9s5,4.122,5,9C31,46.264,29.251,49.949,27,50.81Z"/><rect x="25" y="39" width="2" height="2"/></g></svg>
