<svg id="Capa_1" enable-background="new 0 0 512 512" height="512" viewBox="0 0 512 512" width="512" xmlns="http://www.w3.org/2000/svg"><g><path d="m497 402h-6.571c-7.685-100.542-91.952-180-194.429-180-52.913 0-103.674 21.791-140.42 60.005-69.18.212-126.271 52.726-133.742 119.995h-6.838c-8.284 0-15 6.716-15 15 0 52.383 42.617 95 95 95h322c52.383 0 95-42.617 95-95 0-8.284-6.716-15-15-15zm-36.689 0h-30.149c-7.486-67.406-64.793-120-134.162-120-24.849 0-48.822 6.76-69.943 19.639-9.891-6.029-20.618-10.815-31.957-14.156 28.91-22.788 64.784-35.483 101.9-35.483 85.925 0 156.707 66.023 164.311 150zm-170.149 0c-1.087-9.786-3.215-19.262-6.286-28.307 3.936-1.116 8.012-1.693 12.124-1.693 19.555 0 36.228 12.541 42.42 30zm79.329 0c-6.968-34.192-37.271-60-73.491-60-8.554 0-17.007 1.482-25.018 4.337-5.481-8.885-11.958-17.092-19.282-24.46 13.813-6.491 28.84-9.877 44.3-9.877 52.805 0 96.623 39.183 103.924 90zm-213.491-90c52.805 0 96.623 39.183 103.924 90h-30.433c-6.968-34.192-37.271-60-73.491-60s-66.522 25.808-73.491 60h-30.433c7.301-50.817 51.119-90 103.924-90zm42.42 90h-84.84c6.192-17.459 22.865-30 42.42-30s36.228 12.541 42.42 30zm218.58 80h-322c-30.681 0-56.465-21.365-63.253-50h448.506c-6.788 28.635-32.572 50-63.253 50z"/><path d="m467 40h-239.096c-6.548-23.057-27.777-40-52.904-40h-160c-8.284 0-15 6.716-15 15s6.716 15 15 15h105v40h-105c-8.284 0-15 6.716-15 15s6.716 15 15 15h105v40h-105c-8.284 0-15 6.716-15 15s6.716 15 15 15h160c25.127 0 46.356-16.943 52.904-40h239.096c24.813 0 45-20.187 45-45s-20.187-45-45-45zm-267 75c0 13.785-11.215 25-25 25h-25v-110h25c13.785 0 25 11.215 25 25zm267-15h-237v-30h237c8.271 0 15 6.729 15 15s-6.729 15-15 15z"/></g></svg>