<svg viewBox="0 0 512 512" xmlns="http://www.w3.org/2000/svg"><path d="m212.5 94.5c-113.21875 0-205 91.789062-205 205 0 113.21875 91.78125 205 205 205s205-91.78125 205-205c0-113.210938-91.78125-205-205-205zm0 285c-44.179688 0-80-35.808594-80-80 0-44.179688 35.820312-80 80-80s80 35.820312 80 80c0 44.191406-35.820312 80-80 80zm0 0" fill="#db9b5c"/><path d="m372.710938 262.929688c-2.832032-12.441407.46875-26.96875-4.949219-38.199219-5.5-11.402344-18.980469-17.859375-26.8125-27.660157-7.859375-9.839843-11.179688-24.410156-21.019531-32.269531-9.800782-7.832031-24.730469-7.851562-36.140626-13.351562-11.21875-5.417969-20.507812-17.121094-32.949218-19.949219-12.039063-2.738281-25.46875 3.710938-38.339844 3.710938s-26.300781-6.449219-38.339844-3.710938c-12.441406 2.828125-21.730468 14.53125-32.949218 19.949219-11.410157 5.5-26.339844 5.519531-36.132813 13.351562-9.847656 7.859375-13.167969 22.429688-21.027344 32.269531-7.832031 9.800782-21.3125 16.257813-26.8125 27.660157-5.417969 11.230469-2.117187 25.757812-4.949219 38.199219-2.730468 12.050781-12.078124 23.699218-12.078124 36.570312 0 12.878906 9.347656 24.53125 12.078124 36.578125 2.832032 12.433594-.46875 26.972656 4.949219 38.191406 5.5 11.410157 18.980469 17.871094 26.8125 27.671875 7.859375 9.839844 11.179688 24.410156 21.019531 32.269532 9.800782 7.820312 24.730469 7.847656 36.140626 13.347656 11.21875 5.421875 20.507812 17.121094 32.949218 19.953125 12.039063 2.738281 25.46875-3.722657 38.339844-3.722657s26.300781 6.460938 38.339844 3.722657c12.441406-2.832031 21.730468-14.53125 32.949218-19.953125 11.410157-5.5 26.339844-5.527344 36.132813-13.347656 9.847656-7.859376 13.167969-22.429688 21.027344-32.269532 7.832031-9.800781 21.3125-16.261718 26.8125-27.660156 5.417969-11.230469 2.117187-25.769531 4.949219-38.203125 2.730468-12.046875 12.078124-23.699219 12.078124-36.578125 0-12.871094-9.347656-24.519531-12.078124-36.570312zm-160.210938 116.570312c-44.179688 0-80-35.808594-80-80 0-44.179688 35.820312-80 80-80s80 35.820312 80 80c0 44.191406-35.820312 80-80 80zm0 0" fill="#ffcd6b"/><path d="m372.710938 262.929688c-2.832032-12.441407.46875-26.96875-4.949219-38.199219-5.5-11.402344-18.980469-17.859375-26.8125-27.660157-7.859375-9.839843-11.179688-24.410156-21.019531-32.269531-9.800782-7.832031-24.730469-7.851562-36.140626-13.351562-11.21875-5.417969-20.507812-17.121094-32.949218-19.949219-7.894532-1.796875-16.390625.355469-24.929688 2.050781 9.65625 4.457031 17.699219 13.367188 27.082032 17.898438 11.410156 5.5 26.34375 5.519531 36.140624 13.351562 9.839844 7.859375 13.160157 22.429688 21.019532 32.269531 7.832031 9.800782 21.3125 16.257813 26.8125 27.660157 5.417968 11.230469 2.121094 25.757812 4.949218 38.199219 2.730469 12.050781 12.078126 23.699218 12.078126 36.570312 0 12.878906-9.347657 24.53125-12.078126 36.578125-2.828124 12.433594.46875 26.972656-4.949218 38.203125-5.5 11.398438-18.980469 17.859375-26.8125 27.660156-7.859375 9.839844-11.179688 24.410156-21.027344 32.269532-9.789062 7.820312-24.722656 7.847656-36.132812 13.347656-9.378907 4.535156-17.417969 13.4375-27.070313 17.894531 8.539063 1.699219 17.027344 3.851563 24.917969 2.058594 12.441406-2.832031 21.730468-14.53125 32.949218-19.953125 11.410157-5.5 26.339844-5.527344 36.132813-13.347656 9.847656-7.859376 13.167969-22.429688 21.027344-32.269532 7.832031-9.800781 21.3125-16.261718 26.8125-27.660156 5.417969-11.230469 2.117187-25.769531 4.949219-38.203125 2.730468-12.046875 12.078124-23.699219 12.078124-36.578125 0-12.871094-9.347656-24.519531-12.078124-36.570312zm0 0" fill="#f2ac4b"/><path d="m299.5 7.5c-113.210938 0-205 91.78125-205 205s91.789062 205 205 205c113.21875 0 205-91.78125 205-205s-91.78125-205-205-205zm0 285c-44.179688 0-80-35.820312-80-80s35.820312-80 80-80c44.191406 0 80 35.820312 80 80s-35.808594 80-80 80zm0 0" fill="#f0b173"/><path d="m299.5 7.5c-5.171875 0-10.296875.195312-15.375.574219 106.039062 7.863281 189.625 96.378906 189.625 204.425781s-83.585938 196.5625-189.625 204.425781c5.078125.378907 10.203125.574219 15.375.574219 113.21875 0 205-91.78125 205-205s-91.78125-205-205-205zm0 0" fill="#db9b5c"/><path d="m291.480469 299.628906c2.640625.242188 5.316406.371094 8.019531.371094 34.210938 0 63.894531-19.738281 78.273438-48.421875.199218-.335937.378906-.6875.527343-1.058594 5.570313-11.503906 8.699219-24.402343 8.699219-38.019531 0-48.246094-39.25-87.5-87.5-87.5-12.632812 0-24.648438 2.695312-35.503906 7.535156-.34375.125-.675782.28125-1 .453125-30.070313 13.859375-50.996094 44.285157-50.996094 79.511719 0 45.519531 34.941406 83.027344 79.410156 87.121094.023438.003906.046875.007812.070313.007812zm80.519531-87.128906c0 1.476562-.058594 2.9375-.144531 4.390625-3.964844-5.828125-9.339844-10.300781-14.578125-14.652344-3.976563-3.308593-7.738282-6.429687-10.46875-9.851562-2.753906-3.449219-4.984375-7.832031-7.339844-12.472657-3.835938-7.539062-7.796875-15.335937-14.859375-20.976562-7.035156-5.621094-15.511719-7.757812-23.710937-9.828125-5.058594-1.277344-9.839844-2.480469-13.84375-4.414063-1.527344-.738281-3.050782-1.644531-4.582032-2.65625 5.464844-1.320312 11.160156-2.039062 17.027344-2.039062 39.976562 0 72.5 32.523438 72.5 72.5zm-143.113281 16.367188c9.558593 2.210937 18.601562 6.359374 26.566406 12.226562 1.339844.988281 2.898437 1.460938 4.441406 1.460938 2.304688 0 4.574219-1.054688 6.046875-3.050782 2.457032-3.332031 1.746094-8.03125-1.589844-10.488281-11.0625-8.148437-23.859374-13.542969-37.332031-15.800781-.003906-.238282-.019531-.476563-.019531-.714844 0-27.789062 15.722656-51.960938 38.730469-64.128906.125.097656.253906.191406.378906.285156 4.5 3.441406 9.152344 7 14.425781 9.546875 5.378906 2.597656 11.132813 4.046875 16.695313 5.449219 6.953125 1.753906 13.523437 3.414062 18.019531 7.003906 4.523438 3.613281 7.59375 9.65625 10.847656 16.058594 2.59375 5.105468 5.28125 10.386718 8.996094 15.035156 3.683594 4.613281 8.214844 8.382812 12.601562 12.023438 5.539063 4.605468 10.773438 8.953124 13.3125 14.214843 2.355469 4.882813 2.609376 11.234375 2.769532 17.992188-12.117188 23.164062-36.375 39.019531-64.277344 39.019531-.238281 0-.472656-.015625-.710938-.019531-1.773437-10.695313-5.492187-20.847657-11.101562-30.25-2.121094-3.558594-6.726562-4.71875-10.28125-2.597657-3.558594 2.121094-4.722656 6.726563-2.601562 10.28125 3.875 6.496094 6.636718 13.433594 8.308593 20.695313-26.84375-6.226563-48.003906-27.394531-54.226562-54.242187zm0 0"/><path d="m512 212.5c0-56.761719-22.105469-110.125-62.238281-150.261719-40.136719-40.132812-93.5-62.238281-150.261719-62.238281-40.726562 0-80.300781 11.558594-114.445312 33.421875-3.488282 2.234375-4.503907 6.875-2.273438 10.359375 2.234375 3.492188 6.875 4.503906 10.363281 2.273438 31.722657-20.316407 68.5-31.054688 106.355469-31.054688 108.902344 0 197.5 88.597656 197.5 197.5s-88.597656 197.5-197.5 197.5-197.5-88.597656-197.5-197.5c0-56.484375 24.269531-110.382812 66.578125-147.871094 3.101563-2.75 3.390625-7.488281.640625-10.589844-2.746094-3.097656-7.484375-3.386718-10.585938-.640624-19.015624 16.847656-34.625 36.78125-46.378906 58.707031-69.296875 37.109375-112.253906 108.703125-112.253906 187.394531 0 56.761719 22.105469 110.125 62.238281 150.261719 40.136719 40.132812 93.5 62.238281 150.261719 62.238281 39.792969 0 78.59375-11.066406 112.210938-32.007812 3.515624-2.191407 4.589843-6.816407 2.398437-10.332032s-6.816406-4.589844-10.332031-2.398437c-31.230469 19.453125-67.292969 29.738281-104.277344 29.738281-108.902344 0-197.5-88.597656-197.5-197.5 0-65.980469 32.492188-126.59375 86.144531-163.152344-4.089843 10.644532-7.320312 21.628906-9.660156 32.84375-2.25 3.496094-4.144531 7.171875-5.964844 10.75-2.355469 4.632813-4.582031 9.003906-7.328125 12.445313-2.730468 3.417969-6.492187 6.542969-10.46875 9.851562-6.53125 5.425781-13.28125 11.035157-17.238281 19.230469-3.890625 8.0625-4.085937 16.777344-4.277344 25.207031-.117187 5.242188-.230469 10.195313-1.230469 14.597657-.941406 4.152343-2.941406 8.53125-5.058593 13.167968-3.378907 7.40625-7.207031 15.796875-7.207031 25.058594 0 9.269531 3.828124 17.664062 7.210937 25.070312 2.113281 4.636719 4.113281 9.015626 5.054687 13.175782 1 4.390625 1.113282 9.34375 1.230469 14.585937.191407 8.429688.386719 17.144531 4.277344 25.195313 3.953125 8.203125 10.710937 13.820312 17.242187 19.25 3.976563 3.304687 7.734376 6.425781 10.464844 9.84375 2.753906 3.449218 4.984375 7.832031 7.339844 12.472656 3.832031 7.539062 7.796875 15.335938 14.859375 20.976562 7.035156 5.613282 15.507813 7.753907 23.703125 9.824219 5.0625 1.277344 9.84375 2.488281 13.851562 4.417969 3.886719 1.875 7.734376 4.820312 11.804688 7.933594 6.777344 5.179687 13.78125 10.539062 22.746094 12.578125 8.613281 1.960937 17.101562.222656 25.304687-1.460938 5.199219-1.066406 10.109375-2.074219 14.699219-2.074219s9.5 1.007813 14.699219 2.074219c5.617187 1.152344 11.363281 2.328125 17.195312 2.328125 2.6875 0 5.390625-.25 8.109375-.867187 8.964844-2.039063 15.96875-7.398438 22.746094-12.578125 4.070312-3.113282 7.917969-6.054688 11.796875-7.929688 4.011719-1.933594 8.792969-3.140625 13.855469-4.421875 8.195312-2.070312 16.667968-4.210937 23.699218-9.824219 6.3125-5.042968 10.15625-11.816406 13.640626-18.589843 12.777343-2.339844 25.242187-5.828125 37.273437-10.425781-9.589844 14-20.945313 26.699218-33.929687 37.925781-3.136719 2.707031-3.480469 7.445312-.773438 10.578125 1.484375 1.714844 3.574219 2.597656 5.679688 2.597656 1.738281 0 3.484374-.601562 4.902343-1.828125 19.792969-17.109375 36.058594-37.417969 48.394531-60.371094 18.160157-9.746093 34.988282-22.214843 49.972657-37.195312 40.132812-40.136719 62.238281-93.5 62.238281-150.261719zm-196.761719 215.851562c-4.492187 3.585938-11.058593 5.246094-18.007812 7-5.5625 1.40625-11.316407 2.859376-16.703125 5.457032-5.257813 2.539062-9.902344 6.089844-14.390625 9.523437-5.75 4.398438-11.183594 8.550781-16.960938 9.863281-5.453125 1.242188-12.015625-.101562-18.964843-1.527343-5.703126-1.167969-11.597657-2.378907-17.710938-2.378907s-12.007812 1.210938-17.710938 2.378907c-6.949218 1.425781-13.515624 2.769531-18.964843 1.527343-5.777344-1.3125-11.210938-5.464843-16.960938-9.863281-4.488281-3.433593-9.132812-6.984375-14.394531-9.527343-5.382812-2.59375-11.136719-4.046876-16.703125-5.453126-6.953125-1.753906-13.519531-3.414062-18.015625-7-4.519531-3.613281-7.59375-9.65625-10.847656-16.054687-2.59375-5.109375-5.28125-10.390625-8.992188-15.039063-3.683594-4.609374-8.214844-8.375-12.59375-12.015624-5.546875-4.609376-10.78125-8.960938-13.324218-14.234376-2.476563-5.125-2.628907-11.871093-2.789063-19.015624-.128906-5.757813-.265625-11.710938-1.597656-17.566407-1.285157-5.660156-3.703125-10.957031-6.039063-16.082031-3.011718-6.601562-5.855468-12.835938-5.855468-18.84375 0-6 2.84375-12.230469 5.855468-18.828125 2.335938-5.125 4.757813-10.425781 6.035156-16.078125 1.335938-5.871094 1.472657-11.824219 1.601563-17.582031.160156-7.144531.316406-13.890625 2.792969-19.023438 2.539062-5.257812 7.769531-9.609375 13.3125-14.214843 3.34375-2.777344 6.769531-5.628907 9.847656-8.875-.09375 2.53125-.15625 5.0625-.15625 7.601562 0 117.171875 95.328125 212.5 212.5 212.5 6.644531 0 13.238281-.316406 19.773438-.914062-1.226563 1.632812-2.550782 3.078124-4.035157 4.265624zm0 0"/></svg>