<svg id="Layer_1" enable-background="new 0 0 128 128" viewBox="0 0 128 128" xmlns="http://www.w3.org/2000/svg"><g><g><circle cx="51.3" cy="43.4" fill="#df6421" r="4.5"/><path d="m28.8 71.2c-3.4-2.5-10.8-1.8-13.4-6.9-3.6 1.8-8.6-4.9-6.6-8-2.3-2-3.7-7.7 0-9.7-2.4-3.5-3.4-11.6 3.5-15s12.7 2.2 14.1 6.2c3.8-1.8 7.6 2.7 7.8 5.8 3.7.2 6 8.3 2.4 10.1 2.5 5.1-2.4 10.6-2.5 14.9 0 1.3-.7 2.4-1.8 3-1.2.5-2.5.4-3.5-.4z" fill="#c7e554"/><circle cx="37.4" cy="65" fill="#df6421" r="14.7"/><path d="m50.3 68.2c.6-4-3.3-10-.1-14.5-3.1-2.2.3-9.5 3.8-9.2.7-2.8 4.9-6.6 8.2-4.3 1.9-3.6 8.3-8 14.3-3.8s3.8 11.8 1 14.7c3.2 2.4 1.1 7.6-1.4 9.2 1.5 3.2-4.3 8.8-7.5 6.6-3.2 4.4-10.1 2.7-13.7 4.5-1.1.6-2.4.5-3.4-.2-1-.6-1.4-1.8-1.2-3z" fill="#c7e554"/><g><g><path d="m91.9 59.4c8.6-5.9 21-16.5 19-21.7s-6.3-4.5-8.2.1-4.5 15.9-10.8 21.6z" fill="#aac348"/><g fill="#c7e554"><path d="m89.4 61c7.6-7.4 16.6-7.8 26-3.8s6.7-5.8.5-7.4c-5.1-1.4-14.6-3-26.5 11.2z"/><path d="m91.5 62.7c6-8.8 4.8-17.7-.8-26.2s4.5-7.6 7.2-1.8c2.2 4.7 5.5 13.8-6.4 28z"/></g></g><path d="m76.9 98.6c5.9-5.3 11.4-11 16.6-17.1 14.9-17.8 9.1-21.5 2.6-27s-11.2-10.6-26.1 7.3c-6.3 7.7-12.1 15.9-17.1 24.5z" fill="#df6421"/></g><path d="m111 70.3c-1.5 17.7-11.2 41.7-47 41.7s-45.5-24-47-41.7z" fill="#eaeaf0"/><path d="m36 121.5c0-6.3 4.2-12 6.5-13h43c2.3 1 6.5 6.7 6.5 13z" fill="#c9c9ce"/><g fill="#df6421"><circle cx="57.4" cy="11" r="4.5"/><circle cx="37.5" cy="21.4" r="4.5"/><circle cx="82.9" cy="19.5" r="4.5"/></g></g><path d="m123.1 54.9c-.9-3.3-3.5-5.9-6.8-6.8-2.5-.7-5-1-7.6-.9 3.1-3.7 4.9-7.3 3.8-10.2-1.2-3-3.2-4.6-5.5-4.7s-4.7 1.8-5.9 4.8c-.1.2-.1.3-.2.5-.4-1.2-.9-2.5-1.4-3.6-1.5-3.1-4.4-5.2-7.9-5.5-1.5-.2-3.1.6-3.9 1.9-1 1.7-.5 4.1 1.4 7.1.5.8 1.6 1.1 2.4.6s1.1-1.6.5-2.5c-1.5-2.3-1.4-3.3-1.3-3.4.4-.2.8-.2 1.2-.1 1.9.4 3.5 1.7 4.4 3.4 1.5 3 2.2 6.5 1.9 9.9-.4 1-.7 2-1.2 2.9-.2-1.8-.6-3.5-1.2-5.2-.3-.9-1.3-1.4-2.2-1.1s-1.4 1.3-1.1 2.2c.7 2 1 4 1.1 6.1-2.2-1.6-4.7-2.9-7.7-2.6-1.8.2-3.5.8-5.1 1.7 1-2.1 1.4-4.4 1.2-6.6-.7-6-6.1-10.3-12.1-9.7-.4 0-.8.1-1.1.2-2.8.7-5.4 2.4-7.2 4.7-1.3-.4-2.7-.3-4 .2-.6.2-1.2.6-1.8 1-2.3-2.5-6.3-2.7-8.8-.4s-2.7 6.3-.4 8.8c.3.3.6.6.9.8-.4 1.1-.5 2.3-.4 3.4-2.1-1.6-4.6-2.6-7.2-3.1-.4-2.9-2-5.7-4.4-6.6-.7-2.3-2.2-4.3-4.3-5.6-1.2-.7-2.6-1.1-4.1-.9-.5-.9-1.1-1.8-1.8-2.5-.6-.7-1.7-.8-2.5-.2-.7.6-.8 1.7-.2 2.5.8.8 1.4 1.8 1.8 2.9.3.9 1.3 1.4 2.2 1.1 1.2-.4 2-.4 2.7.1 1.5.9 2.5 2.4 2.8 4.1.1.9.8 1.6 1.6 1.6.9.1 2 1.5 2.4 3.3-4 .2-7.8 1.9-10.6 4.8-.1.1-.3.3-.4.5l-1.6-3.1c.3-1.9.9-3.7 1.9-5.3.6-.8.4-1.9-.4-2.4s-1.9-.4-2.4.4c-.5.9-1 1.8-1.3 2.7l-2.8-5.5c-.4-.9-1.5-1.2-2.3-.8-.9.4-1.2 1.5-.8 2.3l2.8 5.5c-1-.3-2-.5-3-.5h-.1c-1 0-1.8.8-1.8 1.7 0 1 .8 1.8 1.7 1.8 1.9.2 3.7.8 5.4 1.7l2.6 4.7c-.2.4-.4.7-.5 1.1-2.5-.8-4.8-1.3-5.5-1.5-1-.2-1.9.4-2.1 1.4s.4 1.9 1.3 2.1 3 .7 5.1 1.4c-.4 1.7-.5 3.5-.3 5.2-1.7-.5-3.2-1.6-4.1-3.2-.4-.9-1.5-1.2-2.3-.8-.9.4-2.1-.4-3-1.4-1.4-1.6-1.8-3.4-1.4-4.1.5-.7.4-1.7-.3-2.3-1.2-1.3-1.8-3-1.6-4.7 0-.9.5-1.7 1.3-2.1.9-.5 1.3-1.6.6-2.5-1.4-2.2-1.8-5-1.2-7.6.5-2.1 2-3.9 4-4.9 1.5-.8 3.1-1 4.8-.8 1 .2 1.9-.5 2-1.4.2-1-.5-1.9-1.4-2-2.4-.4-4.8 0-7 1.1-2.9 1.4-5.1 4-5.9 7.1-.7 3-.4 6.2.9 9-1 1-1.6 2.3-1.7 3.8-.2 2.4.4 4.8 1.9 6.8-.6 2.4.6 5.1 2.2 7 1.7 1.9 3.7 2.9 5.6 2.7.7.9 1.5 1.7 2.5 2.3h.1c-1 0-1.8.8-1.8 1.8.3 6 2.2 13.3 5 19.3.4.9 1.5 1.2 2.3.8.9-.4 1.2-1.5.8-2.3-2.4-5.1-3.9-10.5-4.5-16h90.1c-1.2 10.6-6.2 27.4-24.4 34.6h-41.2c-4.1-1.6-7.9-3.9-11.2-6.8-.7-.6-1.8-.6-2.5.1-.6.7-.6 1.8.1 2.5 2.9 2.5 6.1 4.7 9.5 6.3-3.2 3.5-5 8-5.1 12.7 0 1 .8 1.7 1.7 1.8h56c1 0 1.7-.8 1.8-1.7-.1-4.7-1.9-9.2-5.1-12.7 18.8-8.9 23.1-27.6 24-38.3.1-1-.6-1.9-1.7-1.9h-7.2c1.9-5.6.1-9.1-2.6-11.9 4.1-.7 8.6 0 13.5 2.1 1.4.7 2.9 1 4.4 1.1 1 0 2-.3 2.8-.9 1.4-1.3 1.9-2.9 1.4-4.4zm-85.2 64.9c.6-4.7 3.5-8.6 5.1-9.5h42c1.5 1 4.5 4.8 5.1 9.5zm65-77.4c.5-1.6 1-2.9 1.4-3.9.8-1.8 1.7-2.6 2.7-2.7.8-.1 1.7 1 2.3 2.5.7 1.9-2.1 6.6-9.8 13.1 1.3-2.9 2.4-5.9 3.4-9zm-44-.9c.8-.4 1.7-.3 2.4.2.8.5 1.9.4 2.5-.6 1.3-2.2 3.4-3.8 5.9-4.4 4-.8 8.5 1.9 8.9 6.4.2 2.5-.6 5-2.3 6.9-.7.7-.6 1.8.1 2.5 0 0 .1 0 .1.1-2.5 2.2-4.9 4.6-7 7.2-.3-.2-.7-.4-1.1-.4-.1 0-3.3.2-6.6.8l3.8-5.3c1.7-.6 3.5-.8 5.3-.8 1 .1 1.8-.6 2-1.5.1-1-.6-1.8-1.5-2-.9-.1-1.8-.1-2.7 0l3.4-4.7c.6-.8.4-1.9-.4-2.4s-2.1-.3-2.7.5l-3.4 4.7c-.2-.9-.5-1.8-.8-2.6-.4-.9-1.5-1.2-2.3-.8s-1.2 1.5-.8 2.3c.6 1.7 1 3.5 1 5.3l-3.8 5.3c-.5-3.3-1.4-6.4-1.4-6.5-.3-.9-1.3-1.4-2.2-1.2-.9.3-1.4 1.2-1.2 2.1.7 2.3 1.8 7.6 1.6 9.9l-3.6 5.1c0-1.7-.3-3.3-.7-5-.7-3-1.3-5.7.2-7.9.6-.8.4-1.9-.4-2.4-.7-.5-.6-2-.1-3.1.7-1.8 2-3 2.8-2.9.9.1 1.7-.5 1.9-1.3.2-.7.6-1.3 1.1-1.9-.1-.1 1.2-1.3 2-1.6zm-3.2 27.1 2.9-4c2.6-.8 5.4-1.3 8.1-1.5-1.4 1.7-2.8 3.6-4.2 5.6h-6.8zm-4.4-27.9c.8 0 1.6.4 2.1 1-.3.4-.5.8-.7 1.2-1.4.4-2.6 1.2-3.5 2.4-1-1.1-1-2.8.1-3.9.6-.5 1.3-.7 2-.7zm-4.7 15.2.7.7c-.2 2.3.1 4.6.7 6.8.4 1.5.6 3 .6 4.5 0 .2-.1.5-.1.7h-5l-1.8-1.8h3.7c1 0 1.8-.8 1.8-1.8s-.8-1.8-1.8-1.8h-3.7l2.6-2.6c.7-.7.7-1.8 0-2.5s-1.8-.7-2.4 0l-2.6 2.6v-3.7c0-1-.8-1.8-1.8-1.8s-1.8.8-1.8 1.8v3.7l-2.6-2.6c-.7-.7-1.8-.7-2.5 0s-.7 1.8 0 2.5l2.6 2.6h-3.7c-1 0-1.8.8-1.8 1.8s.8 1.8 1.8 1.8h3.7l-1.8 1.8h-6.4c-2-6.9 2-14 8.8-16 4.5-1.3 9.4-.1 12.8 3.3zm20.2 12.7c1.5-2 3-3.9 4.5-5.7 6.3-7.6 11.2-11.3 14.9-11.7 2.7-.3 5.8 2.4 8.9 4.9 3.4 2.6 5.8 5.5 5.9 7.5.1 1.4-.1 3-1 5zm52.9-12.3c-.1.1-1.1.4-3.6-.7-4.1-1.9-8.6-2.8-13.1-2.6.5-.4 1-.9 1.5-1.3 3.5-1.2 7.3-1.2 10.9-.2 1.9.5 3.4 1.9 4.2 3.7.1.3.2.7.1 1.1zm-91.6 39.4c.6.8.5 1.9-.3 2.5s-1.9.5-2.5-.3-1.3-1.7-1.9-2.5c-.5-.8-.3-1.9.5-2.4s1.9-.3 2.4.5c.7.7 1.3 1.5 1.8 2.2zm67.7-.1c-1 0-1.8-.8-1.8-1.7 0-.4.2-.8.4-1.1 1.8-2.1 3.3-4.4 4.5-6.8.4-.9 1.5-1.2 2.3-.8s1.2 1.5.8 2.3c-1.3 2.7-3 5.3-5 7.6-.2.3-.7.5-1.2.5zm-38.4-78.3c3.5 0 6.2-2.8 6.2-6.3s-2.8-6.2-6.3-6.2c-3.4 0-6.2 2.8-6.2 6.2 0 3.5 2.8 6.2 6.3 6.3zm0-9c1.5 0 2.7 1.2 2.7 2.8s-1.2 2.7-2.8 2.7c-1.5 0-2.7-1.2-2.7-2.7 0-1.6 1.3-2.9 2.8-2.8zm-19.9 19.3c3.5 0 6.3-2.8 6.3-6.3s-2.8-6.3-6.3-6.3-6.3 2.8-6.3 6.3c.1 3.5 2.9 6.3 6.3 6.3zm0-9c1.5 0 2.8 1.2 2.8 2.8s-1.2 2.8-2.8 2.8-2.8-1.2-2.8-2.8c.1-1.5 1.3-2.8 2.8-2.8zm45.4 7.1c3.5 0 6.3-2.8 6.3-6.3s-2.8-6.3-6.3-6.3-6.3 2.8-6.3 6.3c.1 3.5 2.9 6.3 6.3 6.3zm0-9c1.5 0 2.8 1.2 2.8 2.8s-1.2 2.8-2.8 2.8-2.8-1.2-2.8-2.8c.1-1.5 1.3-2.8 2.8-2.8z" fill="#190d28"/></g></svg>